#!OML:ASF E:\Mandelcareful walks\Project 1\Capture day 1\Session 1\Subject1.ASF
:FULLY-SPECIFIED
:DEGREES
651
root 39.1348 14.6468 -9.10121 -902.113 -42.6352 -168.727
lowerback 15.2224 1.78156 11.0111
upperback 5.32004 3.44321 0.429359
thorax -2.13975 1.58768 -6.30443
lowerneck -24.6436 12.528 6.79122
upperneck 23.1558 20.3037 -18.1869
head 15.0898 6.75798 -4.14825
rclavicle 2.63638e-014 2.04748e-014
rhumerus -29.5573 28.7858 -71.0676
rradius 56.499
rwrist -4.32882
rhand -10.5793 -14.8587
rfingers 7.12502
rthumb 15.4257 -44.2632
lclavicle 2.63638e-014 2.04748e-014
lhumerus -50.4233 -22.7002 89.9204
lradius 54.3512
lwrist 30.5635
lhand -26.4916 -2.45767
lfingers 7.12502
lthumb 0.0709547 27.5221
rfemur -11.3367 -18.9378 10.0486
rtibia 45.0339
rfoot -24.1912 -8.67634
rtoes -29.285
lfemur -42.7772 8.0173 -24.6254
ltibia 90.2609
lfoot -24.7356 10.7501
ltoes 4.11422
652
root 38.8918 14.7416 -9.42626 -902.717 -43.5771 -167.602
lowerback 14.968 2.26402 10.3563
upperback 5.03383 4.01872 0.781952
thorax -2.29105 1.85768 -5.63955
lowerneck -24.6155 12.3495 6.84523
upperneck 23.4424 20.068 -18.1505
head 15.1755 6.65202 -4.21614
rclavicle -4.93234e-014 2.18663e-014
rhumerus -28.7372 28.0147 -71.0043
rradius 58.2384
rwrist -7.68051
rhand -11.3044 -15.6866
rfingers 7.12502
rthumb 14.7273 -45.1435
lclavicle -4.93234e-014 2.18663e-014
lhumerus -53.5917 -23.8019 91.4392
lradius 54.5637
lwrist 30.0357
lhand -26.015 -4.08925
lfingers 7.12502
lthumb 0.531242 25.8898
rfemur -7.81916 -17.2879 11.0877
rtibia 41.6785
rfoot -23.5595 -10.4328
rtoes -30.5597
lfemur -44.9878 9.08905 -25.2572
ltibia 86.9626
lfoot -25.7781 11.874
ltoes 4.4036
653
root 38.6108 14.8832 -9.76112 -903.162 -44.1695 -166.191
lowerback 14.1903 2.75763 9.49999
upperback 4.6835 4.54475 1.33797
thorax -2.2894 2.11221 -4.61279
lowerneck -24.4983 12.2098 6.14311
upperneck 23.5069 19.9486 -17.5522
head 14.9703 6.6259 -3.8936
rclavicle -5.15349e-014 -1.49089e-014
rhumerus -28.682 28.4725 -71.1599
rradius 60.7197
rwrist -10.9741
rhand -12.692 -16.7462
rfingers 7.12502
rthumb 13.3901 -46.2959
lclavicle -5.15349e-014 -1.49089e-014
lhumerus -56.7769 -23.7773 93.172
lradius 55.0448
lwrist 29.1544
lhand -25.214 -4.92075
lfingers 7.12502
lthumb 1.30485 25.055
rfemur -4.59189 -15.0507 12.5978
rtibia 37.8557
rfoot -22.1192 -12.2231
rtoes -30.8786
lfemur -47.007 10.3812 -25.6625
ltibia 82.9045
lfoot -26.9442 13.3034
ltoes 3.46859
654
root 38.2835 15.023 -10.0651 -903.741 -45.9818 -164.683
lowerback 13.2853 2.84291 9.59576
upperback 4.35957 4.64154 1.42331
thorax -2.13282 2.17862 -4.54253
lowerneck -24.9889 12.0317 6.17199
upperneck 23.8997 19.5829 -16.9482
head 15.091 6.51425 -3.73518
rclavicle -6.24681e-014 -1.3418e-014
rhumerus -29.0866 27.7314 -71.8815
rradius 63.3246
rwrist -13.9476
rhand -12.4131 -16.8553
rfingers 7.12502
rthumb 13.6589 -46.3872
lclavicle -6.24681e-014 -1.3418e-014
lhumerus -59.6102 -24.3671 94.5724
lradius 55.6573
lwrist 28.9842
lhand -23.6705 -5.23218
lfingers 7.12502
lthumb 2.79561 24.7292
rfemur -0.987191 -13.6847 13.8181
rtibia 33.7645
rfoot -20.0356 -13.4207
rtoes -29.1768
lfemur -48.4277 10.3755 -26.3812
ltibia 78.2944
lfoot -27.7821 14.8347
ltoes 2.41965
655
root 37.9585 15.1386 -10.3761 -904.03 -47.2034 -163.245
lowerback 12.1727 3.09941 9.17422
upperback 4.12565 4.86581 1.5121
thorax -1.79489 2.31496 -4.17762
lowerneck -26.0815 11.9808 6.19326
upperneck 24.281 19.403 -16.3417
head 15.3636 6.44767 -3.50516
rclavicle 2.49475e-014 1.98785e-016
rhumerus -29.4059 27.598 -72.8688
rradius 65.7516
rwrist -15.325
rhand -12.8359 -17.237
rfingers 7.12502
rthumb 13.2514 -46.7958
lclavicle 2.49475e-014 1.98785e-016
lhumerus -61.9493 -24.6779 95.8339
lradius 56.2913
lwrist 28.9325
lhand -22.9405 -6.24201
lfingers 7.12502
lthumb 3.50055 23.709
rfemur 2.23499 -11.6237 15.264
rtibia 29.2645
rfoot -16.9237 -15.0583
rtoes -27.5428
lfemur -49.5322 11.2752 -27.257
ltibia 73.5618
lfoot -28.7565 13.694
ltoes 8.70129
656
root 37.5708 15.2945 -10.6916 -904.194 -47.842 -161.75
lowerback 10.6869 3.51676 8.78818
upperback 3.87277 5.27866 1.57337
thorax -1.24204 2.55487 -3.84596
lowerneck -27.1156 11.9561 6.06738
upperneck 24.5896 19.2646 -15.6403
head 15.5654 6.40976 -3.20085
rclavicle -7.85199e-015 2.10712e-014
rhumerus -29.7878 27.7143 -73.9492
rradius 67.8518
rwrist -16.5755
rhand -12.498 -16.7719
rfingers 7.12502
rthumb 13.577 -46.3092
lclavicle -7.85199e-015 2.10712e-014
lhumerus -64.1442 -25.0557 97.1361
lradius 56.9671
lwrist 29.1218
lhand -22.6406 -7.79188
lfingers 7.12502
lthumb 3.79015 22.1542
rfemur 5.04315 -10.4504 16.4867
rtibia 24.9155
rfoot -12.0419 -16.6317
rtoes -28.3575
lfemur -50.7106 12.4525 -27.9178
ltibia 69.0287
lfoot -28.1777 13.3895
ltoes 7.69909
657
root 37.1331 15.5175 -10.9939 -904.239 -48.4806 -160.324
lowerback 9.16656 3.92997 8.44483
upperback 3.49275 5.71087 1.57502
thorax -0.791379 2.79831 -3.58919
lowerneck -27.9289 11.8786 5.87142
upperneck 24.8927 19.0495 -14.8849
head 15.6928 6.35701 -2.88987
rclavicle -1.00983e-013 3.97569e-016
rhumerus -30.7815 28.246 -75.2843
rradius 70.0218
rwrist -17.5574
rhand -13.0986 -15.8666
rfingers 7.12502
rthumb 12.9982 -45.4417
lclavicle -1.00983e-013 3.97569e-016
lhumerus -66.1856 -25.2552 98.1959
lradius 57.8214
lwrist 29.3146
lhand -21.2462 -8.41679
lfingers 7.12502
lthumb 5.13666 21.5009
rfemur 7.43306 -9.55097 17.3976
rtibia 20.9227
rfoot -7.56015 -17.8428
rtoes -24.1108
lfemur -51.8409 13.1483 -28.1556
ltibia 65.0845
lfoot -27.3282 12.708
ltoes 9.02053
658
root 36.7213 15.6018 -11.2955 -904.23 -49.0289 -158.974
lowerback 7.48345 4.36807 8.18888
upperback 3.1667 6.16721 1.46977
thorax -0.168419 3.06117 -3.45676
lowerneck -28.7715 11.786 5.85121
upperneck 25.1455 18.7318 -14.1523
head 15.8161 6.28392 -2.63781
rclavicle -3.37934e-014 2.0276e-014
rhumerus -32.1786 28.894 -76.7893
rradius 72.1056
rwrist -18.5435
rhand -12.6414 -14.2643
rfingers 7.12502
rthumb 13.4388 -43.8108
lclavicle -3.37934e-014 2.0276e-014
lhumerus -67.725 -25.402 98.8904
lradius 58.5906
lwrist 28.7913
lhand -19.9281 -8.85342
lfingers 7.12502
lthumb 6.40921 21.0296
rfemur 9.87173 -8.47832 18.2219
rtibia 16.7693
rfoot -3.07694 -19.6596
rtoes -18.0101
lfemur -52.3255 14.6431 -29.0405
ltibia 62.1095
lfoot -27.1563 10.8863
ltoes 11.5199
659
root 36.2928 15.6639 -11.5908 -904.228 -49.3943 -157.635
lowerback 5.55854 4.83899 8.00325
upperback 2.96942 6.64128 1.31158
thorax 0.743201 3.34289 -3.36387
lowerneck -29.482 11.423 5.66077
upperneck 25.3987 18.065 -13.3855
head 15.8503 6.06536 -2.43997
rclavicle -3.08116e-014 -1.03368e-014
rhumerus -33.553 29.6373 -78.4802
rradius 73.9747
rwrist -19.2489
rhand -12.6598 -13.4707
rfingers 7.12502
rthumb 13.4211 -43.0184
lclavicle -3.08116e-014 -1.03368e-014
lhumerus -68.4478 -25.9729 99.3582
lradius 59.0138
lwrist 28.1763
lhand -19.4309 -10.2553
lfingers 7.12502
lthumb 6.88924 19.6126
rfemur 11.8945 -7.06964 19.0955
rtibia 13.2086
rfoot 1.94782 -21.6699
rtoes -15.7893
lfemur -53.1657 16.9117 -30.3024
ltibia 60.0793
lfoot -26.8223 10.3767
ltoes 11.4848
660
root 35.8383 15.7359 -11.8728 -904.618 -49.5857 -155.935
lowerback 3.71015 5.33311 8.1045
upperback 2.81972 7.15644 1.21154
thorax 1.701 3.64314 -3.34254
lowerneck -30.098 11.1469 5.56128
upperneck 25.5966 17.435 -12.4961
head 15.8421 5.90494 -2.19491
rclavicle -1.27222e-014 3.18055e-015
rhumerus -34.8339 30.1157 -80.1673
rradius 74.8029
rwrist -19.9533
rhand -12.652 -11.6672
rfingers 7.12502
rthumb 13.4287 -41.2143
lclavicle -1.27222e-014 3.18055e-015
lhumerus -68.6334 -26.6977 99.5201
lradius 59.4504
lwrist 27.4549
lhand -18.6448 -11.3978
lfingers 7.12502
lthumb 7.64804 18.4439
rfemur 12.5622 -6.48369 19.8762
rtibia 12.1982
rfoot 6.79957 -21.9391
rtoes -15.5361
lfemur -53.8476 18.833 -30.7545
ltibia 59.2071
lfoot -26.0744 10.4722
ltoes 11.1525
661
root 35.4257 15.7491 -12.1417 -905.424 -50.1984 -153.87
lowerback 2.58103 5.63631 8.11845
upperback 2.43394 7.49137 1.28491
thorax 1.95918 3.81536 -3.17244
lowerneck -30.4025 10.9549 5.62321
upperneck 25.7375 16.9328 -11.8668
head 15.8227 5.79097 -2.05918
rclavicle -1.86858e-014 -4.6118e-014
rhumerus -36.6921 30.5496 -81.9367
rradius 75.7205
rwrist -20.5278
rhand -11.831 -12.9085
rfingers 7.12502
rthumb 14.2198 -42.4017
lclavicle -1.86858e-014 -4.6118e-014
lhumerus -68.6601 -27.175 99.515
lradius 59.9815
lwrist 26.2416
lhand -17.815 -12.2343
lfingers 7.12502
lthumb 8.44888 17.5767
rfemur 12.5765 -6.00514 21.0487
rtibia 12.6407
rfoot 10.0871 -22.245
rtoes -11.9566
lfemur -54.3141 20.2295 -30.7633
ltibia 59.1383
lfoot -24.4914 10.9051
ltoes 12.189
662
root 35.0185 15.6946 -12.4064 -906.184 -50.8001 -152.491
lowerback 1.84111 5.74191 7.72975
upperback 2.29097 7.58065 1.23466
thorax 2.1871 3.86334 -2.94109
lowerneck -30.9075 11.0168 5.97285
upperneck 25.8282 16.7233 -11.4391
head 15.9144 5.78851 -1.96972
rclavicle -1.01778e-013 -7.95139e-015
rhumerus -38.2715 31.1024 -83.7048
rradius 76.0686
rwrist -20.795
rhand -11.6748 -12.1301
rfingers 7.12502
rthumb 14.3704 -41.6127
lclavicle -1.01778e-013 -7.95139e-015
lhumerus -68.0617 -27.4472 98.9858
lradius 60.5408
lwrist 25.3033
lhand -17.978 -13.427
lfingers 7.12502
lthumb 8.29157 16.3903
rfemur 11.4994 -5.97503 21.4539
rtibia 16.1198
rfoot 11.8506 -21.2465
rtoes -10.4473
lfemur -53.3251 21.0828 -30.586
ltibia 59.7813
lfoot -24.0605 10.8136
ltoes 17.1818
663
root 34.5986 15.6202 -12.653 -906.845 -51.6595 -152.093
lowerback 1.71307 5.682 7.11349
upperback 2.30128 7.50634 0.906319
thorax 2.22215 3.82864 -2.93367
lowerneck -30.9121 11.0952 6.4372
upperneck 25.7022 16.4462 -10.9767
head 15.8021 5.81362 -1.91206
rclavicle -5.12864e-014 4.37326e-014
rhumerus -39.7091 31.3167 -85.5261
rradius 75.8036
rwrist -20.8798
rhand -11.517 -10.6789
rfingers 7.12502
rthumb 14.5224 -40.1506
lclavicle -5.12864e-014 4.37326e-014
lhumerus -67.1463 -27.7574 98.0525
lradius 61.1681
lwrist 24.7949
lhand -18.2769 -13.8588
lfingers 7.12502
lthumb 8.00307 15.9697
rfemur 10.5961 -6.48452 20.7945
rtibia 20.4355
rfoot 12.9442 -19.7867
rtoes -11.7833
lfemur -51.0516 20.6399 -29.9718
ltibia 60.6066
lfoot -25.5613 10.4754
ltoes 23.5686
